<svg width="209" height="205" viewBox="0 0 209 205" fill="none" xmlns="http://www.w3.org/2000/svg">
    <path d="M10.6476 115.191C8.59113 114.302 6.76004 112.964 5.28912 111.274C3.81819 109.584 2.74487 107.586 2.14813 105.427C-6.88188 73.0446 15.4832 34.4595 55.3463 13.6844C95.2094 -7.09077 139.648 -3.32135 161.019 22.6293C162.452 24.3544 163.48 26.3793 164.027 28.5546C164.573 30.7298 164.624 33.0001 164.176 35.1977C163.728 37.3954 162.793 39.4645 161.439 41.2524C160.084 43.0403 158.346 44.5014 156.352 45.5279L23.5913 114.718C21.6065 115.76 19.4133 116.343 17.1732 116.425C14.933 116.507 12.7031 116.085 10.6476 115.191ZM195.049 76.5576L167.384 106.817L130.094 110.505C128.181 110.697 126.415 111.617 125.161 113.075L100.844 141.389L63.656 145.13C61.8254 145.314 60.1265 146.166 58.8833 147.522L29.2672 179.854C28.0771 181.338 27.4965 183.22 27.6433 185.117C27.79 187.014 28.6532 188.785 30.0574 190.069C31.4617 191.353 33.3019 192.054 35.2046 192.031C37.1072 192.008 38.9298 191.261 40.3022 189.943L49.2163 180.239L51.5145 184.649C56.1061 193.459 64.0095 200.085 73.4861 203.068C82.9627 206.051 93.2361 205.147 102.046 200.556L181.773 159.005C190.583 154.414 197.208 146.51 200.191 137.034C203.174 127.557 202.271 117.284 197.679 108.474L193.494 100.443L206.101 86.6806C206.84 85.9707 207.426 85.1168 207.822 84.1715C208.218 83.2263 208.416 82.2098 208.403 81.1851C208.391 80.1603 208.168 79.1491 207.749 78.2138C207.33 77.2785 206.724 76.4391 205.967 75.7476C205.211 75.056 204.321 74.527 203.352 74.1932C202.383 73.8595 201.356 73.728 200.334 73.8071C199.312 73.8861 198.318 74.1739 197.412 74.6528C196.505 75.1316 195.707 75.7912 195.066 76.5909L195.049 76.5576ZM17.4517 151.711L190.192 61.6854C191.954 60.7671 193.279 59.1864 193.875 57.2911C194.472 55.3958 194.291 53.3411 193.373 51.579C192.455 49.817 190.874 48.4919 188.979 47.8953C187.083 47.2987 185.029 47.4794 183.267 48.3977L10.5266 138.423C8.76458 139.342 7.4395 140.922 6.84288 142.818C6.24627 144.713 6.427 146.768 7.34532 148.53C8.26364 150.292 9.84432 151.617 11.7396 152.213C13.6349 152.81 15.6896 152.629 17.4517 151.711Z" fill="#DFFFE0"/>
</svg>

