<svg width="77" height="65" viewBox="0 0 77 65" fill="none" xmlns="http://www.w3.org/2000/svg">
    <path d="M70.5008 0.255859H6.49923C4.95612 0.255859 3.4762 0.868859 2.38506 1.96001C1.29391 3.05115 0.680908 4.53107 0.680908 6.07418V61.3483C0.681173 61.8441 0.808164 62.3316 1.04983 62.7646C1.29149 63.1975 1.6398 63.5615 2.06169 63.822C2.48358 64.0825 2.96505 64.2309 3.46039 64.253C3.95573 64.2751 4.4485 64.1702 4.89192 63.9483L15.2267 58.7809L25.5615 63.9483C25.9657 64.1506 26.4114 64.2559 26.8634 64.2559C27.3153 64.2559 27.761 64.1506 28.1652 63.9483L38.5 58.7809L48.8348 63.9483C49.239 64.1506 49.6847 64.2559 50.1367 64.2559C50.5886 64.2559 51.0343 64.1506 51.4385 63.9483L61.7733 58.7809L72.1081 63.9483C72.5515 64.1702 73.0443 64.2751 73.5396 64.253C74.035 64.2309 74.5164 64.0825 74.9383 63.822C75.3602 63.5615 75.7085 63.1975 75.9502 62.7646C76.1919 62.3316 76.3188 61.8441 76.3191 61.3483V6.07418C76.3191 4.53107 75.7061 3.05115 74.615 1.96001C73.5238 0.868859 72.0439 0.255859 70.5008 0.255859ZM55.955 38.075H21.045C20.2735 38.075 19.5335 37.7685 18.988 37.2229C18.4424 36.6773 18.1359 35.9374 18.1359 35.1658C18.1359 34.3942 18.4424 33.6543 18.988 33.1087C19.5335 32.5631 20.2735 32.2566 21.045 32.2566H55.955C56.7265 32.2566 57.4665 32.5631 58.0121 33.1087C58.5576 33.6543 58.8641 34.3942 58.8641 35.1658C58.8641 35.9374 58.5576 36.6773 58.0121 37.2229C57.4665 37.7685 56.7265 38.075 55.955 38.075ZM55.955 26.4383H21.045C20.2735 26.4383 19.5335 26.1318 18.988 25.5862C18.4424 25.0407 18.1359 24.3007 18.1359 23.5292C18.1359 22.7576 18.4424 22.0176 18.988 21.4721C19.5335 20.9265 20.2735 20.62 21.045 20.62H55.955C56.7265 20.62 57.4665 20.9265 58.0121 21.4721C58.5576 22.0176 58.8641 22.7576 58.8641 23.5292C58.8641 24.3007 58.5576 25.0407 58.0121 25.5862C57.4665 26.1318 56.7265 26.4383 55.955 26.4383Z" fill="#063B14"/>
</svg>
