<svg width="75" height="65" viewBox="0 0 75 65" fill="none" xmlns="http://www.w3.org/2000/svg">
    <path d="M0.300049 51.4225C0.300049 50.7153 0.579997 50.037 1.07831 49.5369C1.57662 49.0368 2.25247 48.7559 2.95719 48.7559H5.61433V43.4225C5.62402 35.4002 8.63208 27.6735 14.044 21.7694C19.4559 15.8653 26.8778 12.2136 34.8429 11.5359V6.08919H29.5286C28.8239 6.08919 28.148 5.80824 27.6497 5.30814C27.1514 4.80805 26.8715 4.12977 26.8715 3.42253C26.8715 2.71528 27.1514 2.037 27.6497 1.53691C28.148 1.03681 28.8239 0.755859 29.5286 0.755859H45.4715C46.1762 0.755859 46.8521 1.03681 47.3504 1.53691C47.8487 2.037 48.1286 2.71528 48.1286 3.42253C48.1286 4.12977 47.8487 4.80805 47.3504 5.30814C46.8521 5.80824 46.1762 6.08919 45.4715 6.08919H40.1572V11.5359C48.1223 12.2136 55.5442 15.8653 60.9561 21.7694C66.368 27.6735 69.3761 35.4002 69.3858 43.4225V48.7559H72.0429C72.7476 48.7559 73.4235 49.0368 73.9218 49.5369C74.4201 50.037 74.7001 50.7153 74.7001 51.4225C74.7001 52.1298 74.4201 52.8081 73.9218 53.3081C73.4235 53.8082 72.7476 54.0892 72.0429 54.0892H2.95719C2.25247 54.0892 1.57662 53.8082 1.07831 53.3081C0.579997 52.8081 0.300049 52.1298 0.300049 51.4225ZM72.0429 59.4225H2.95719C2.25247 59.4225 1.57662 59.7035 1.07831 60.2036C0.579997 60.7037 0.300049 61.382 0.300049 62.0892C0.300049 62.7964 0.579997 63.4747 1.07831 63.9748C1.57662 64.4749 2.25247 64.7559 2.95719 64.7559H72.0429C72.7476 64.7559 73.4235 64.4749 73.9218 63.9748C74.4201 63.4747 74.7001 62.7964 74.7001 62.0892C74.7001 61.382 74.4201 60.7037 73.9218 60.2036C73.4235 59.7035 72.7476 59.4225 72.0429 59.4225Z" fill="#063B14"/>
</svg>
