<svg width="61" height="65" viewBox="0 0 61 71" fill="none" xmlns="http://www.w3.org/2000/svg">
    <path d="M30.5 10.7559C24.5666 10.7559 18.7664 12.5153 13.8329 15.8118C8.89943 19.1082 5.05426 23.7936 2.78363 29.2754C0.512999 34.7571 -0.0811015 40.7891 1.07645 46.6086C2.23401 52.428 5.09123 57.7735 9.28681 61.9691C13.4824 66.1646 18.8279 69.0219 24.6473 70.1794C30.4667 71.337 36.4987 70.7429 41.9805 68.4722C47.4623 66.2016 52.1477 62.3564 55.4441 57.423C58.7405 52.4895 60.5 46.6893 60.5 40.7559C60.4909 32.8022 57.3273 25.1768 51.7032 19.5527C46.079 13.9286 38.4537 10.765 30.5 10.7559ZM44.7688 30.0246L32.2688 42.5246C32.0365 42.7569 31.7607 42.9411 31.4573 43.0668C31.1538 43.1925 30.8285 43.2572 30.5 43.2572C30.1715 43.2572 29.8463 43.1925 29.5428 43.0668C29.2393 42.9411 28.9635 42.7569 28.7313 42.5246C28.499 42.2923 28.3147 42.0166 28.189 41.7131C28.0633 41.4096 27.9986 41.0843 27.9986 40.7559C27.9986 40.4274 28.0633 40.1021 28.189 39.7986C28.3147 39.4951 28.499 39.2194 28.7313 38.9871L41.2313 26.4871C41.4635 26.2548 41.7393 26.0706 42.0428 25.9449C42.3463 25.8192 42.6715 25.7545 43 25.7545C43.3285 25.7545 43.6538 25.8192 43.9573 25.9449C44.2607 26.0706 44.5365 26.2548 44.7688 26.4871C45.001 26.7194 45.1853 26.9951 45.311 27.2986C45.4367 27.6021 45.5014 27.9274 45.5014 28.2559C45.5014 28.5843 45.4367 28.9096 45.311 29.2131C45.1853 29.5166 45.001 29.7923 44.7688 30.0246ZM20.5 3.25586C20.5 2.59282 20.7634 1.95693 21.2322 1.48809C21.7011 1.01925 22.337 0.755859 23 0.755859H38C38.6631 0.755859 39.2989 1.01925 39.7678 1.48809C40.2366 1.95693 40.5 2.59282 40.5 3.25586C40.5 3.9189 40.2366 4.55479 39.7678 5.02363C39.2989 5.49247 38.6631 5.75586 38 5.75586H23C22.337 5.75586 21.7011 5.49247 21.2322 5.02363C20.7634 4.55479 20.5 3.9189 20.5 3.25586Z" fill="#063B14"/>
</svg>
